<?xml version="1.0" standalone="no"?><!DOCTYPE svg PUBLIC "-//W3C//DTD SVG 1.1//EN" "http://www.w3.org/Graphics/SVG/1.1/DTD/svg11.dtd"><svg class="icon" width="200px" height="200.00px" viewBox="0 0 1024 1024" version="1.1" xmlns="http://www.w3.org/2000/svg"><path d="M692.4 426.1L412.9 255.8c-19.3-11.8-44 2.1-44 24.7v340.7c0 22.6 24.7 36.5 44 24.7l279.6-170.3c18.5-11.3 18.5-38.2-0.1-49.5z" fill="#4EEAAB" /><path d="M397.9 650.2c5 0 10.2-1.3 15-4.3l279.6-170.3c18.5-11.3 18.5-38.2 0-49.4L412.9 255.8c-4.8-2.9-10-4.3-15-4.3-15.1 0-29 12-29 29v340.7c0 16.9 13.9 29 29 29z m47.8-284.5l139.7 85.1L445.7 536V365.7z" fill="#454563" /><path d="M972.8 66.8H51.2C22.9 66.8 0 89.7 0 118v665.6c0 28.3 22.9 51.2 51.2 51.2h921.6c28.3 0 51.2-22.9 51.2-51.2V118c0-28.3-22.9-51.2-51.2-51.2zM947.2 758H76.8V143.6h870.4V758zM806.4 880.4H217.6c-21.2 0-38.4 17.2-38.4 38.4s17.2 38.4 38.4 38.4h588.8c21.2 0 38.4-17.2 38.4-38.4s-17.2-38.4-38.4-38.4z" fill="#454563" /></svg>