<?xml version="1.0" standalone="no"?><!DOCTYPE svg PUBLIC "-//W3C//DTD SVG 1.1//EN" "http://www.w3.org/Graphics/SVG/1.1/DTD/svg11.dtd"><svg class="icon" width="200px" height="200.00px" viewBox="0 0 1024 1024" version="1.1" xmlns="http://www.w3.org/2000/svg"><path d="M884.736 278.016h-277.504c-3.072 0-6.144-2.048-7.168-5.12-1.024-3.072 0-6.144 2.56-7.68L737.28 175.104c12.8-8.192 17.408-24.576 10.24-37.888-4.096-7.168-10.752-12.288-18.432-14.336-8.192-2.048-16.384-0.512-23.04 4.096l-161.792 109.056c-19.456 13.312-45.056 13.312-64.512 0L317.952 127.488c-13.312-8.704-31.232-5.12-40.448 8.192-0.512 0.512-0.512 1.024-1.024 1.536-6.656 13.312-2.048 29.696 10.24 37.888l134.144 90.112c3.072 2.048 4.096 6.656 2.048 9.728-1.536 2.048-3.584 3.072-6.144 3.072H139.264c-31.232 0-56.832 25.088-57.344 56.832V844.8c0 31.232 26.112 56.832 57.344 56.832h745.472c31.232 0 56.832-25.088 57.344-56.832V334.848c0-31.744-26.112-56.832-57.344-56.832z m-286.72 481.792c0 15.872-13.312 28.672-29.184 28.672H225.28c-15.872 0-28.672-12.8-28.672-28.672V419.84c0-15.872 12.8-28.672 28.672-28.672h344.064c15.872 0 28.672 12.8 28.672 28.672v339.968z m215.04 28.16H727.04c-15.872 0.512-29.184-11.264-29.696-27.136-0.512-15.872 11.264-29.184 27.136-29.696h88.576c15.872-0.512 29.184 11.264 29.696 27.136 0.512 15.872-11.264 29.184-27.136 29.696h-2.56z m0-127.488H727.04c-15.872 0.512-29.184-11.264-29.696-27.136-0.512-15.872 11.264-29.184 27.136-29.696h88.576c15.872-0.512 29.184 11.264 29.696 27.136 0.512 15.872-11.264 29.184-27.136 29.696h-2.56z m-43.008-127.488c-38.912-0.512-70.144-32.768-69.632-71.68s32.768-70.144 71.68-69.632c38.912 0.512 69.632 32.256 69.632 70.656 0 38.912-32.256 71.168-71.68 70.656z" fill="#3366FF" /><path d="M513.536 449.536h-230.4c-15.872-0.512-28.672 12.288-29.184 28.16v225.28c0.512 15.872 13.312 28.16 29.184 28.16h230.4c15.872 0 28.672-12.288 28.672-28.16v-225.28c0-15.36-12.8-28.16-28.672-28.16z" fill="#AEC9FF" /></svg>